<svg width="25" height="25" viewBox="0 0 25 25" fill="none" xmlns="http://www.w3.org/2000/svg">
<path d="M8.0514 1.18529C7.67544 0.289915 6.68428 -0.186654 5.73705 0.068479L1.44037 1.2238C0.590794 1.45486 0 2.21545 0 3.08194C0 14.9913 9.79449 24.6479 21.874 24.6479C22.7529 24.6479 23.5244 24.0654 23.7587 23.2278L24.9305 18.9916C25.1893 18.0578 24.7059 17.0806 23.7978 16.7099L19.1105 14.7844C18.3146 14.457 17.3918 14.6833 16.8498 15.3428L14.8773 17.716C11.4399 16.113 8.65684 13.3691 7.03094 9.98015L9.43806 8.04018C10.107 7.50103 10.3365 6.59603 10.0044 5.81138L8.0514 1.1901V1.18529Z" fill="#FAFAFA"/>
</svg>
