<svg width="25" height="22" viewBox="0 0 25 22" fill="none" xmlns="http://www.w3.org/2000/svg">
<path d="M2.34375 0.929688C1.0498 0.929688 0 2.08891 0 3.51772C0 4.33187 0.34668 5.09749 0.9375 5.58814L11.5625 14.3874C12.1191 14.8457 12.8809 14.8457 13.4375 14.3874L24.0625 5.58814C24.6533 5.09749 25 4.33187 25 3.51772C25 2.08891 23.9502 0.929688 22.6562 0.929688H2.34375ZM0 6.96842V18.1832C0 20.0865 1.40137 21.6339 3.125 21.6339H21.875C23.5986 21.6339 25 20.0865 25 18.1832V6.96842L14.375 15.7677C13.2617 16.6897 11.7383 16.6897 10.625 15.7677L0 6.96842Z" fill="white"/>
</svg>
