<svg width="25" height="25" viewBox="0 0 26 26" fill="none" xmlns="http://www.w3.org/2000/svg">
<path d="M18.0467 16.3641L17.7886 16.7128L18.0974 17.0175L24.2794 23.116L24.2795 23.1162C24.6912 23.522 24.6912 24.1786 24.2795 24.5844C23.8639 24.9942 23.1854 24.9942 22.7697 24.5846C22.7696 24.5845 22.7696 24.5845 22.7695 24.5844L16.5877 18.4861L16.2867 18.1891L15.9439 18.4367C14.3473 19.5896 12.3789 20.2674 10.2451 20.2674C4.90378 20.2674 0.588318 16.0033 0.588318 10.7556C0.588318 5.50801 4.90378 1.2439 10.2451 1.2439C15.5863 1.2439 19.9018 5.50801 19.9018 10.7556C19.9018 12.8532 19.2115 14.7906 18.0467 16.3641ZM10.2451 18.1868C14.3964 18.1868 17.7767 14.8651 17.7767 10.7556C17.7767 6.64614 14.3964 3.32443 10.2451 3.32443C6.0937 3.32443 2.71347 6.64614 2.71347 10.7556C2.71347 14.8651 6.0937 18.1868 10.2451 18.1868Z" fill="#1B1426" stroke="#F9AA01"/>
</svg>
