<svg width="25" height="25" viewBox="0 0 26 26" fill="none" xmlns="http://www.w3.org/2000/svg">
<path d="M16.1597 8.94636H16.6597V8.44636V6.13562C16.6597 4.09336 14.7625 2.55464 12.5883 2.55464C10.4142 2.55464 8.51689 4.09336 8.51689 6.13562V8.44636V8.94636H9.01689H16.1597ZM6.33832 8.94636H6.83832V8.44636V6.13562C6.83832 3.49864 9.33835 1.2439 12.5883 1.2439C15.8383 1.2439 18.3383 3.49864 18.3383 6.13562V8.44636V8.94636H18.8383H22.4097C23.6843 8.94636 24.5883 9.82429 24.5883 10.7571V20.7703C24.5883 22.9788 22.4845 24.8918 19.7312 24.8918H5.44546C2.69214 24.8918 0.588318 22.9788 0.588318 20.7703V10.7571C0.588318 9.82429 1.49237 8.94636 2.76689 8.94636H6.33832ZM5.83832 11.9125C5.83832 12.8956 6.73115 13.5678 7.6776 13.5678C8.62406 13.5678 9.51689 12.8956 9.51689 11.9125C9.51689 10.9293 8.62406 10.2571 7.6776 10.2571C6.73115 10.2571 5.83832 10.9293 5.83832 11.9125ZM17.499 13.5678C18.4455 13.5678 19.3383 12.8956 19.3383 11.9125C19.3383 10.9293 18.4455 10.2571 17.499 10.2571C16.5526 10.2571 15.6597 10.9293 15.6597 11.9125C15.6597 12.8956 16.5526 13.5678 17.499 13.5678Z" fill="#1B1426" stroke="#F9AA01"/>
</svg>
