<svg width="104" height="88" viewBox="0 0 104 88" fill="none" xmlns="http://www.w3.org/2000/svg">
<path d="M95.6092 0H8.7374C6.64287 0 4.63413 0.834903 3.15307 2.32104C1.67201 3.80718 0.839966 5.82281 0.839966 7.92453V79.2453C0.839966 81.347 1.67201 83.3626 3.15307 84.8488C4.63413 86.3349 6.64287 87.1698 8.7374 87.1698H15.3515C16.0992 87.1719 16.8318 86.9583 17.4619 86.5543C18.0919 86.1504 18.593 85.5732 18.9053 84.8915C20.8374 80.8342 23.8744 77.4084 27.6652 75.0102C31.456 72.612 35.8458 71.3394 40.3271 71.3394C44.8085 71.3394 49.1983 72.612 52.9891 75.0102C56.7799 77.4084 59.8169 80.8342 61.7489 84.8915C62.0613 85.5732 62.5623 86.1504 63.1924 86.5543C63.8225 86.9583 64.5551 87.1719 65.3028 87.1698H95.6092C97.7037 87.1698 99.7125 86.3349 101.194 84.8488C102.675 83.3626 103.507 81.347 103.507 79.2453V7.92453C103.507 5.82281 102.675 3.80718 101.194 2.32104C99.7125 0.834903 97.7037 0 95.6092 0ZM28.481 51.5094C28.481 49.1584 29.1758 46.8603 30.4774 44.9055C31.7791 42.9507 33.6292 41.4271 35.7938 40.5275C37.9584 39.6278 40.3403 39.3924 42.6382 39.851C44.9361 40.3097 47.0469 41.4418 48.7036 43.1042C50.3604 44.7666 51.4886 46.8846 51.9457 49.1904C52.4028 51.4962 52.1682 53.8863 51.2716 56.0583C50.375 58.2303 48.8566 60.0868 46.9085 61.3929C44.9604 62.6991 42.6701 63.3962 40.3271 63.3962C37.1894 63.3832 34.1838 62.1266 31.965 59.9003C29.7462 57.6739 28.494 54.658 28.481 51.5094ZM95.6092 79.2453H67.672C64.3762 73.5558 59.4123 69.0245 53.4566 66.2689C56.4457 63.5982 58.5554 60.079 59.5059 56.1778C60.4564 52.2767 60.2029 48.1778 58.7789 44.4245C57.355 40.6712 54.8279 37.4408 51.5326 35.1615C48.2373 32.8821 44.3295 31.6616 40.3271 31.6616C36.3248 31.6616 32.417 32.8821 29.1217 35.1615C25.8264 37.4408 23.2993 40.6712 21.8754 44.4245C20.4514 48.1778 20.1979 52.2767 21.1484 56.1778C22.0989 60.079 24.2085 63.5982 27.1977 66.2689C21.242 69.0245 16.278 73.5558 12.9823 79.2453H8.7374V7.92453H95.6092V79.2453ZM16.6348 27.7358V19.8113C16.6348 18.7605 17.0509 17.7526 17.7914 17.0096C18.5319 16.2665 19.5363 15.8491 20.5836 15.8491H83.763C84.8103 15.8491 85.8147 16.2665 86.5552 17.0096C87.2957 17.7526 87.7118 18.7605 87.7118 19.8113V67.3585C87.7118 68.4093 87.2957 69.4172 86.5552 70.1602C85.8147 70.9033 84.8103 71.3207 83.763 71.3207H75.8656C74.8183 71.3207 73.814 70.9033 73.0734 70.1602C72.3329 69.4172 71.9169 68.4093 71.9169 67.3585C71.9169 66.3076 72.3329 65.2998 73.0734 64.5567C73.814 63.8137 74.8183 63.3962 75.8656 63.3962H79.8143V23.7736H24.5323V27.7358C24.5323 28.7867 24.1162 29.7945 23.3757 30.5376C22.6352 31.2807 21.6308 31.6981 20.5836 31.6981C19.5363 31.6981 18.5319 31.2807 17.7914 30.5376C17.0509 29.7945 16.6348 28.7867 16.6348 27.7358Z" fill="white"/>
</svg>
