<svg width="105" height="77" viewBox="0 0 105 77" fill="none" xmlns="http://www.w3.org/2000/svg">
<path d="M66.4091 59.591L69.4974 58.0434C69.2103 57.4703 68.7693 56.9884 68.2239 56.6517C67.6784 56.3149 67.0501 56.1365 66.4091 56.1365V59.591ZM38.7727 59.591V56.1365C38.1317 56.1365 37.5033 56.3149 36.9579 56.6517C36.4125 56.9884 35.9715 57.4703 35.6843 58.0434L38.7727 59.591ZM97.5 25.0456V56.33H104.409V25.0456H97.5ZM71.6876 62.4238L69.4974 58.0434L63.3207 61.1387L65.5109 65.5121L71.6876 62.4238ZM66.4091 56.1365H38.7727V63.0456H66.4091V56.1365ZM35.6843 58.0434L33.4942 62.4238L39.6709 65.5121L41.8611 61.1387L35.6843 58.0434ZM7.6818 56.33V25.0456H0.772705V56.33H7.6818ZM24.9545 7.77286H80.2272V0.86377H24.9545V7.77286ZM21.3065 69.9547C17.693 69.9547 14.2275 68.5192 11.6724 65.9641C9.11725 63.409 7.6818 59.9435 7.6818 56.33H0.772705C0.772705 61.7759 2.93608 66.9987 6.78692 70.8496C10.6378 74.7004 15.8606 76.8638 21.3065 76.8638V69.9547ZM83.8752 69.9547C78.7142 69.9547 73.9952 67.039 71.6876 62.4238L65.5109 65.5121C67.2155 68.9218 69.8356 71.7896 73.0778 73.7945C76.32 75.7993 80.0563 76.8621 83.8683 76.8638L83.8752 69.9547ZM97.5 56.33C97.5 59.9435 96.0645 63.409 93.5094 65.9641C90.9543 68.5192 87.4887 69.9547 83.8752 69.9547L83.8683 76.8638C89.3142 76.8638 94.544 74.7004 98.3948 70.8496C102.246 66.9987 104.409 61.7759 104.409 56.33H97.5ZM33.4942 62.4238C32.3624 64.687 30.6227 66.5903 28.4701 67.9205C26.3175 69.2506 23.8369 69.955 21.3065 69.9547V76.8638C25.1197 76.8634 28.8575 75.8012 32.101 73.7963C35.3445 71.7913 37.9657 68.9228 39.6709 65.5121L33.4942 62.4238ZM104.409 25.0456C104.409 18.6322 101.861 12.4814 97.3264 7.94646C92.7914 3.41149 86.6407 0.86377 80.2272 0.86377V7.77286C84.8083 7.77286 89.2016 9.59266 92.4409 12.8319C95.6802 16.0712 97.5 20.4646 97.5 25.0456H104.409ZM7.6818 25.0456C7.6818 20.4646 9.5016 16.0712 12.7409 12.8319C15.9801 9.59266 20.3735 7.77286 24.9545 7.77286V0.86377C18.5411 0.86377 12.3904 3.41149 7.85539 7.94646C3.32042 12.4814 0.772705 18.6322 0.772705 25.0456H7.6818ZM21.5 35.4092H42.2272V28.5001H21.5V35.4092ZM28.4091 21.591V42.3183H35.3182V21.591H28.4091ZM76.7727 28.5001H83.6818V21.591H76.7727V28.5001ZM62.9545 42.3183H69.8636V35.4092H62.9545V42.3183Z" fill="white"/>
</svg>
