<svg width="25" height="25" viewBox="0 0 25 25" fill="none" xmlns="http://www.w3.org/2000/svg">
<path d="M23.2143 0H1.78013C0.797991 0 0 0.797756 0 1.77707V22.8708C0 23.8501 0.797991 24.6479 1.78013 24.6479H23.2143C24.1964 24.6479 25 23.8501 25 22.8708V1.77707C25 0.797756 24.1964 0 23.2143 0ZM7.5558 21.1268H3.85045V9.364H7.56138V21.1268H7.5558ZM5.70312 7.75748C4.51451 7.75748 3.55469 6.80568 3.55469 5.63931C3.55469 4.47293 4.51451 3.52113 5.70312 3.52113C6.88616 3.52113 7.85156 4.47293 7.85156 5.63931C7.85156 6.81118 6.89174 7.75748 5.70312 7.75748ZM21.4453 21.1268H17.74V15.4049C17.74 14.0405 17.7121 12.2854 15.8147 12.2854C13.8839 12.2854 13.5882 13.7709 13.5882 15.3059V21.1268H9.88281V9.364H13.4375V10.9705H13.4877C13.9844 10.0462 15.1953 9.0724 16.9978 9.0724C20.7478 9.0724 21.4453 11.5097 21.4453 14.6787V21.1268Z" fill="white"/>
</svg>
