<svg width="25" height="25" viewBox="0 0 25 25" fill="none" xmlns="http://www.w3.org/2000/svg">
<path d="M12.5028 6.00454C8.95566 6.00454 6.09453 8.826 6.09453 12.3239C6.09453 15.8219 8.95566 18.6434 12.5028 18.6434C16.0499 18.6434 18.911 15.8219 18.911 12.3239C18.911 8.826 16.0499 6.00454 12.5028 6.00454ZM12.5028 16.4324C10.2105 16.4324 8.33659 14.5899 8.33659 12.3239C8.33659 10.058 10.205 8.2155 12.5028 8.2155C14.8006 8.2155 16.669 10.058 16.669 12.3239C16.669 14.5899 14.795 16.4324 12.5028 16.4324ZM20.6679 5.74604C20.6679 6.56553 19.9986 7.22002 19.1732 7.22002C18.3422 7.22002 17.6785 6.56003 17.6785 5.74604C17.6785 4.93205 18.3477 4.27206 19.1732 4.27206C19.9986 4.27206 20.6679 4.93205 20.6679 5.74604ZM24.9122 7.24202C24.8173 5.26755 24.36 3.51857 22.8932 2.07759C21.432 0.636616 19.6584 0.185622 17.6562 0.0866237C15.5926 -0.0288746 9.40742 -0.0288746 7.34384 0.0866237C5.34718 0.180122 3.57362 0.631116 2.1068 2.07209C0.639989 3.51307 0.188232 5.26205 0.0878416 7.23652C-0.0292805 9.27149 -0.0292805 15.3709 0.0878416 17.4059C0.182655 19.3803 0.639989 21.1293 2.1068 22.5703C3.57362 24.0113 5.34161 24.4623 7.34384 24.5613C9.40742 24.6768 15.5926 24.6768 17.6562 24.5613C19.6584 24.4678 21.432 24.0168 22.8932 22.5703C24.3544 21.1293 24.8118 19.3803 24.9122 17.4059C25.0293 15.3709 25.0293 9.27699 24.9122 7.24202ZM22.2462 19.5893C21.8112 20.6673 20.969 21.4978 19.8703 21.9323C18.225 22.5758 14.321 22.4273 12.5028 22.4273C10.6846 22.4273 6.77496 22.5703 5.13525 21.9323C4.04211 21.5033 3.19994 20.6728 2.75934 19.5893C2.1068 17.9669 2.25739 14.1169 2.25739 12.3239C2.25739 10.531 2.11238 6.67553 2.75934 5.05855C3.19437 3.98057 4.03653 3.15008 5.13525 2.71558C6.78054 2.07209 10.6846 2.22059 12.5028 2.22059C14.321 2.22059 18.2306 2.07759 19.8703 2.71558C20.9635 3.14458 21.8056 3.97507 22.2462 5.05855C22.8988 6.68103 22.7482 10.531 22.7482 12.3239C22.7482 14.1169 22.8988 17.9724 22.2462 19.5893Z" fill="white"/>
</svg>
