<svg width="16" height="19" viewBox="0 0 16 19" fill="none" xmlns="http://www.w3.org/2000/svg">
<path d="M4.82857 0.656836L4.57143 1.1875H1.14286C0.510714 1.1875 0 1.71816 0 2.375C0 3.03184 0.510714 3.5625 1.14286 3.5625H14.8571C15.4893 3.5625 16 3.03184 16 2.375C16 1.71816 15.4893 1.1875 14.8571 1.1875H11.4286L11.1714 0.656836C10.9786 0.252344 10.5821 0 10.15 0H5.85C5.41786 0 5.02143 0.252344 4.82857 0.656836ZM14.8571 4.75H1.14286L1.9 17.3301C1.95714 18.2689 2.70714 19 3.61071 19H12.3893C13.2929 19 14.0429 18.2689 14.1 17.3301L14.8571 4.75Z" fill="#F9AA01"/>
</svg>
